<svg xmlns="http://www.w3.org/2000/svg" xmlns:xlink="http://www.w3.org/1999/xlink" viewBox="0 0 823.06 685.3"><defs><style>.cls-1,.cls-5{fill:#e63947;}.cls-1{opacity:0.18;}.cls-1,.cls-10{isolation:isolate;}.cls-10,.cls-2{fill:#3e3e54;}.cls-3{fill:url(#Dégradé_sans_nom_20);}.cls-4{fill:url(#Dégradé_sans_nom_20-2);}.cls-6{fill:url(#Dégradé_sans_nom_20-3);}.cls-7{fill:url(#Dégradé_sans_nom_20-4);}.cls-8{fill:url(#Dégradé_sans_nom_20-5);}.cls-9{fill:url(#Dégradé_sans_nom_20-6);}.cls-10{opacity:0.31;}.cls-11{fill:url(#Dégradé_sans_nom_20-7);}.cls-12{fill:url(#Dégradé_sans_nom_20-8);}.cls-13{fill:url(#Dégradé_sans_nom_16);}.cls-14{fill:url(#Dégradé_sans_nom_16-2);}.cls-15{fill:url(#Dégradé_sans_nom_20-9);}.cls-16{fill:url(#Dégradé_sans_nom_16-3);}.cls-17{fill:url(#Dégradé_sans_nom_16-4);}.cls-18{fill:url(#Dégradé_sans_nom_20-10);}.cls-19{fill:url(#Dégradé_sans_nom_20-11);}.cls-20{fill:url(#Dégradé_sans_nom_16-5);}.cls-21{fill:url(#Dégradé_sans_nom_19);}.cls-22{fill:url(#Dégradé_sans_nom_19-2);}.cls-23{fill:url(#Dégradé_sans_nom_19-3);}.cls-24{fill:url(#Dégradé_sans_nom_20-12);}.cls-25{fill:none;}</style><linearGradient id="Dégradé_sans_nom_20" x1="-125.59" y1="591.5" x2="-124.59" y2="591.5" gradientTransform="matrix(148.02, -18.17, -8.92, -72.62, 23990.85, 41068.16)" gradientUnits="userSpaceOnUse"><stop offset="0" stop-opacity="0"/><stop offset="0.99"/></linearGradient><linearGradient id="Dégradé_sans_nom_20-2" x1="-125.61" y1="591.11" x2="-124.61" y2="591.11" gradientTransform="matrix(105.39, -12.94, -13.75, -111.95, 21617.94, 65051.41)" xlink:href="#Dégradé_sans_nom_20"/><linearGradient id="Dégradé_sans_nom_20-3" x1="-124.84" y1="593.37" x2="-126.06" y2="589.89" gradientTransform="matrix(92.63, -11.37, -4.97, -40.5, 14895.56, 22716.75)" xlink:href="#Dégradé_sans_nom_20"/><linearGradient id="Dégradé_sans_nom_20-4" x1="-125.48" y1="592.8" x2="-125" y2="592.06" gradientTransform="matrix(62.01, -7.61, -5.25, -42.74, 11237.54, 24596.03)" xlink:href="#Dégradé_sans_nom_20"/><linearGradient id="Dégradé_sans_nom_20-5" x1="-125.46" y1="591.36" x2="-124.39" y2="590.41" gradientTransform="matrix(181.32, -22.26, -22.41, -182.49, 36315.57, 105296.71)" xlink:href="#Dégradé_sans_nom_20"/><linearGradient id="Dégradé_sans_nom_20-6" x1="-125.18" y1="591.78" x2="-124.51" y2="591.09" gradientTransform="matrix(92.46, -11.35, -9.16, -74.57, 17613.52, 42824.46)" xlink:href="#Dégradé_sans_nom_20"/><linearGradient id="Dégradé_sans_nom_20-7" x1="-125.58" y1="591.07" x2="-124.58" y2="591.07" gradientTransform="matrix(171.39, -21.04, -14.59, -118.85, 30452.05, 67912.22)" xlink:href="#Dégradé_sans_nom_20"/><linearGradient id="Dégradé_sans_nom_20-8" x1="-123.71" y1="591.09" x2="-129.36" y2="590.75" gradientTransform="matrix(73.11, -8.98, -16.37, -133.3, 19135.94, 77853.75)" xlink:href="#Dégradé_sans_nom_20"/><linearGradient id="Dégradé_sans_nom_16" x1="-126.12" y1="592.74" x2="-125.12" y2="592.74" gradientTransform="matrix(16.72, -2.05, -4.17, -33.95, 4869.66, 19992.02)" gradientUnits="userSpaceOnUse"><stop offset="0" stop-color="#e4c5d5"/><stop offset="0.42" stop-color="#ead4d1"/><stop offset="1" stop-color="#f1e9cb"/></linearGradient><linearGradient id="Dégradé_sans_nom_16-2" x1="-125.83" y1="592.22" x2="-124.83" y2="592.22" gradientTransform="matrix(32.87, -4.04, -5.36, -43.67, 7598.02, 25458.19)" xlink:href="#Dégradé_sans_nom_16"/><linearGradient id="Dégradé_sans_nom_20-9" x1="-125.13" y1="592.45" x2="-125.2" y2="591.48" gradientTransform="matrix(68.47, -8.41, -6.39, -52.08, 12637.91, 29865.95)" xlink:href="#Dégradé_sans_nom_20"/><linearGradient id="Dégradé_sans_nom_16-3" x1="-125.86" y1="595.1" x2="-124.86" y2="595.1" gradientTransform="matrix(29.28, -3.59, -2.08, -16.9, 5319.43, 9742.15)" xlink:href="#Dégradé_sans_nom_16"/><linearGradient id="Dégradé_sans_nom_16-4" x1="-226.82" y1="596.14" x2="-225.84" y2="596.14" gradientTransform="matrix(29.63, -3.64, -1.7, -13.85, 5127.41, 7971.23)" xlink:href="#Dégradé_sans_nom_16"/><linearGradient id="Dégradé_sans_nom_20-10" x1="-125.33" y1="591.84" x2="-125.41" y2="590.38" gradientTransform="matrix(31.06, -3.81, -10.86, -88.41, 10771.93, 51926.68)" xlink:href="#Dégradé_sans_nom_20"/><linearGradient id="Dégradé_sans_nom_20-11" x1="-125.48" y1="594.95" x2="-125.13" y2="594.29" gradientTransform="matrix(30.35, -3.73, -2.24, -18.28, 5594.02, 10492.77)" xlink:href="#Dégradé_sans_nom_20"/><linearGradient id="Dégradé_sans_nom_16-5" x1="-126.14" y1="595.94" x2="-125.14" y2="595.94" gradientTransform="matrix(16.29, -2, -1.76, -14.35, 3572.56, 8650.41)" xlink:href="#Dégradé_sans_nom_16"/><linearGradient id="Dégradé_sans_nom_19" x1="-124.21" y1="590.97" x2="-125.61" y2="590.91" gradientTransform="matrix(184.45, -22.65, -18.42, -150.02, 34111.4, 86325.4)" gradientUnits="userSpaceOnUse"><stop offset="0.02" stop-color="#fff" stop-opacity="0"/><stop offset="0.58" stop-color="#fff" stop-opacity="0.39"/><stop offset="0.68" stop-color="#fff" stop-opacity="0.68"/><stop offset="1" stop-color="#fff"/></linearGradient><linearGradient id="Dégradé_sans_nom_19-2" x1="-123.2" y1="592.32" x2="-126.22" y2="591.12" gradientTransform="matrix(75.19, -9.23, -8.55, -69.63, 14665.37, 40512.79)" xlink:href="#Dégradé_sans_nom_19"/><linearGradient id="Dégradé_sans_nom_19-3" x1="-125.01" y1="593.23" x2="-125.53" y2="590.17" gradientTransform="matrix(92.31, -11.33, -4.65, -37.88, 14640.65, 21182.73)" xlink:href="#Dégradé_sans_nom_19"/><linearGradient id="Dégradé_sans_nom_20-12" x1="-125.05" y1="590.78" x2="-124.98" y2="590" gradientTransform="matrix(451.8, -55.47, -39.27, -319.8, 80149.8, 182238.67)" xlink:href="#Dégradé_sans_nom_20"/></defs><g id="Calque_2" data-name="Calque 2"><g id="Calque_1-2" data-name="Calque 1"><g id="fast_working" data-name="fast working"><path id="Tracé_1988" data-name="Tracé 1988" class="cls-1" d="M537.37,20.71c-18.08-4.17-35.09-12.16-53.1-16.49-24.46-5.85-50-4.82-75-1.72C328.56,12.41,249,45,192.1,103.1c-22.67,23.1-42.22,50.51-70.93,65.36C98.46,180.24,70.5,183.9,53.28,202.82c-19.27,21.09-18,53.61-12.58,81.72S54.4,342,45.44,369.22c-5.26,16-16,29.39-24.34,44a159.48,159.48,0,0,0,79,227.26c42.28,16.95,89.72,15.14,134.87,8.83,41.22-5.76,70,32.89,101.42,5.62,15.24-13.24,56.45,31.59,71.3,17.71,4.63-4.33-5.57,3.58,0,0,1.5-1,6.79-18.8,10.93-5.11,10.19,33.7,23.3.28,26.79,5.11,19.41,26.82,13,3.34,38.87,0,38-4.94,250.25-9.5,281.13-32.16s59.24-160,57.6-198.24c-1.27-29.36-64-80.15-57.6-108.8,2.43-10.91-5.94-39.42,0-48.87,21.84-34.88-48.86-75.28-37.22-114.85,6.31-21.42,6.49-44.17,4.82-66.42-2.15-28-9.85-59.67-34.68-72.87-22.51-12-47.22-2.11-71-2.6C598.08,27.15,566,27.25,537.37,20.71Z"/><path id="Tracé_1989" data-name="Tracé 1989" class="cls-2" d="M267.51,346.13s-76.45-9.09-121.1,38.31,9.94,23,28.78,26.33,47.49,10.52,47.49,10.52S294,376.25,267.51,346.13Z"/><path id="Tracé_1990" data-name="Tracé 1990" class="cls-3" d="M267.51,346.13s-76.45-9.09-121.1,38.31,9.94,23,28.78,26.33,47.49,10.52,47.49,10.52S294,376.25,267.51,346.13Z"/><path id="Tracé_1991" data-name="Tracé 1991" class="cls-2" d="M256,467.15s42.9-36.53,73-30.76l25.19,4.48S350.8,537,268.73,555.62c0,0-17.5,4-1.91-31S256,467.15,256,467.15Z"/><path id="Tracé_1992" data-name="Tracé 1992" class="cls-4" d="M256,467.15s42.9-36.53,73-30.76l25.19,4.48S350.8,537,268.73,555.62c0,0-17.5,4-1.91-31S256,467.15,256,467.15Z"/><path id="Tracé_1993" data-name="Tracé 1993" class="cls-5" d="M348.27,143.9a37.45,37.45,0,0,0,11.11,2.42c5.57,0,10.81-2.37,15.94-4.52a191.36,191.36,0,0,1,18.29-6.55c3.41-1,7.45-1.83,10.27.44s2.86,6.8,1,9.94-5,5.19-8.06,7.15l-18,11.45a60.35,60.35,0,0,1-9.69,5.38c-14.07,5.72-30.06.29-43.72-6.26-5.27-2.55-11.06-6.06-12-11.84a19.29,19.29,0,0,1,.59-6.89,15.36,15.36,0,0,1,3.13-7.48C322.37,131.44,342.11,141.88,348.27,143.9Z"/><path id="Tracé_1994" data-name="Tracé 1994" class="cls-6" d="M347.89,144.15A37.45,37.45,0,0,0,359,146.57c5.57,0,10.81-2.37,15.95-4.52a185.22,185.22,0,0,1,18.35-6.54c3.4-1,7.45-1.85,10.27.44s2.86,6.78,1,9.92-5,5.19-8.06,7.15l-18,11.46a61.59,61.59,0,0,1-9.7,5.38c-14.06,5.71-30.05.28-43.71-6.26-5.26-2.54-11.06-6.07-12-11.85a18.8,18.8,0,0,1,.59-6.88,15.43,15.43,0,0,1,3-7.42C322,131.7,341.67,142.16,347.89,144.15Z"/><path id="Tracé_1995" data-name="Tracé 1995" class="cls-2" d="M394.91,210.08c-4.39,9-10.44,17.3-16.46,25.42s-12.05,16.1-20.83,20.64c-4.32,2.23-9.62,3.46-14.06,1.42-4.82-2.2-7.38-7.86-7.18-13.16a28.1,28.1,0,0,1,5.74-14.62,75.81,75.81,0,0,1,8.3-10.91c3.44-3.35,7.48-3.7,12.39-4.66a244.18,244.18,0,0,1,32.1-4.12Z"/><path id="Tracé_1996" data-name="Tracé 1996" class="cls-7" d="M394.91,210.08c-4.39,9-10.44,17.3-16.46,25.42s-12.05,16.1-20.83,20.64c-4.32,2.23-9.62,3.46-14.06,1.42-4.82-2.2-7.38-7.86-7.18-13.16a28.1,28.1,0,0,1,5.74-14.62,75.81,75.81,0,0,1,8.3-10.91c3.44-3.35,7.48-3.7,12.39-4.66a244.18,244.18,0,0,1,32.1-4.12Z"/><path id="Tracé_1997" data-name="Tracé 1997" class="cls-5" d="M671,99.91a113.65,113.65,0,0,1-1.18,12.35,276.7,276.7,0,0,1-17.21,62.58c-18.08,45.69-54,107.09-125.15,168.62-111.72,96.91-216.93,123.69-256.12,130.6-10.36,1.86-16.11,2.35-16.11,2.35l-42.51-51s32.9-64.89,97.86-136.66h0a666.34,666.34,0,0,1,99.12-90.09,622,622,0,0,1,67.49-43.33,486.19,486.19,0,0,1,101.46-42.65C636,96.45,671,99.91,671,99.91Z"/><path id="Tracé_1998" data-name="Tracé 1998" class="cls-8" d="M395.86,225c-1.3,3.31,5.13,12.57,8.24,14.31s6.75,2.58,9.16,5.25a4.42,4.42,0,0,1,1.34,3.56c-.3,1.94-2.34,3-4.13,3.91L362.3,273.57a8.19,8.19,0,0,0-3.49,2.36c-1.75,2.39-.28,6,2.23,7.54a13.58,13.58,0,0,0,8.65,1c16.19-2,33.14-10.88,47.78-3.75a41,41,0,0,1,11.11,8.85,140.25,140.25,0,0,1,26.8,39.4c2,4.49,3.87,9.42,2.76,14.22a44.41,44.41,0,0,1-21.53-13.34c-7.16-8.12-11.68-19.11-21.26-24.09-7-3.66-15.43-3.22-23.17-1.6s-15.19,4.52-23,5.58c-17.41,2.36-34.57-4.27-51-10.77-3.41-1.28-7.36-3.33-7.87-7a6.12,6.12,0,0,1,.35-3h0A665.8,665.8,0,0,1,409.79,199a621.48,621.48,0,0,1,67.49-43.33C485.08,164.27,396.42,223.62,395.86,225Z"/><path id="Tracé_1999" data-name="Tracé 1999" class="cls-9" d="M670.49,100.59s-.53,29.86-18.38,74.93a222.89,222.89,0,0,1-22.8-5.44c-30.76-8.93-47.83-48.36-51.09-56.58C635.42,97.15,670.49,100.59,670.49,100.59Z"/><circle id="Ellipse_463" data-name="Ellipse 463" class="cls-10" cx="541.34" cy="197.84" r="28.06"/><circle id="Ellipse_464" data-name="Ellipse 464" class="cls-10" cx="473.06" cy="249.57" r="28.06"/><circle id="Ellipse_465" data-name="Ellipse 465" class="cls-10" cx="399.25" cy="314.08" r="28.06"/><path id="Tracé_2000" data-name="Tracé 2000" class="cls-2" d="M216.58,406.34l55.86,69-24.07,12.44L202.18,428Z"/><path id="Tracé_2001" data-name="Tracé 2001" class="cls-2" d="M342.38,300.48c22.71,2.62,45-6,66.74-13.13a13.39,13.39,0,0,1,7-1c2.75.6,4.81,2.81,6.64,4.95a195.11,195.11,0,0,1,23.68,34.88c4,7.49,7.87,15.7,15.21,20s19.17,1.66,20.61-6.71c-15.41-30.81-33.35-60.28-51.27-89.72-1.62-2.66-3.39-5.47-6.22-6.81a16.24,16.24,0,0,0-7.66-1l-80.28,2.89c-18,.65-45.17,1.58-36.14,25.67C306.94,287.37,325.1,298.48,342.38,300.48Z"/><path id="Tracé_2002" data-name="Tracé 2002" class="cls-11" d="M342.38,300.48c22.71,2.62,45-6,66.74-13.13a13.39,13.39,0,0,1,7-1c2.75.6,4.81,2.81,6.64,4.95a195.11,195.11,0,0,1,23.68,34.88c4,7.49,7.87,15.7,15.21,20s19.17,1.66,20.61-6.71c-15.41-30.81-33.35-60.28-51.27-89.72-1.62-2.66-3.39-5.47-6.22-6.81a16.24,16.24,0,0,0-7.66-1l-80.28,2.89c-18,.65-45.17,1.58-36.14,25.67C306.94,287.37,325.1,298.48,342.38,300.48Z"/><path id="Tracé_2003" data-name="Tracé 2003" class="cls-5" d="M353.87,229.35c.67,5.42,1.36,11-.48,16.19-2.32,6.75-8.52,11.59-15.3,14.07a45.58,45.58,0,0,1-6.59,1.81A109.78,109.78,0,0,1,317,262.88c-9.28.53-19.89.55-26.3-6.19-4.5-4.74-5.69-11.64-6.63-18.12-2.59-17.7-4.85-35.43-7.16-53.17-1.25-10.14-7-23.33-6.79-33.22A22.56,22.56,0,0,1,282,132.31c12.89-7.5,33.18-5.64,44.19,4.26,8.82,7.91,13.27,19.54,16.51,30.94C348.48,187.62,351.3,208.52,353.87,229.35Z"/><path id="Tracé_2004" data-name="Tracé 2004" class="cls-12" d="M319.46,199.25q3.78,20,6.35,40.09a71.88,71.88,0,0,0,1.9,11c.8,2.75,2.91,5.11,3.55,7.73a11.19,11.19,0,0,1,.32,3.36,109.93,109.93,0,0,1-14.49,1.46c-9.28.53-19.89.55-26.3-6.19-4.5-4.74-5.68-11.64-6.63-18.12-2.58-17.7-4.85-35.43-7.16-53.16-1.25-10.15-7-23.34-6.79-33.23A22.56,22.56,0,0,1,282,132.32a19.94,19.94,0,0,1,3.29,1c6.27,2.4,11.36,7.12,16.07,11.93a43.24,43.24,0,0,1,6.42,7.91,44.89,44.89,0,0,1,4.35,12.15q3.18,13,5.82,26.18c.95,4.69.06,7.83,5.27,8.11a99.91,99.91,0,0,0,13.29-.22c4.5-.35,9.74-1.52,11.64-5.62a8.75,8.75,0,0,0-1.91-9.28,16.63,16.63,0,0,0-8.78-4.54c-3.26-.76-6.63-1-9.91-1.67a23.6,23.6,0,0,1-9.27-3.78,13.51,13.51,0,0,1-5.53-8.16"/><path id="Tracé_2005" data-name="Tracé 2005" class="cls-13" d="M290.36,128.41a16.31,16.31,0,0,0,.79,4.81c1.48,3.82,5.55,5.94,9.48,7.11,2.42.73,5.57,1,7-1.11,1.11-1.65.52-3.86-.12-5.76L304,123.15a35.25,35.25,0,0,0-2.78-6.69c-1.25-2.15-8.81-10.59-11.77-7.84-1.24,1.14.15,7.71.27,9.39Z"/><path id="Tracé_2006" data-name="Tracé 2006" class="cls-14" d="M288.33,109.06a27,27,0,0,0,7.26,11.15,17.6,17.6,0,0,0,12.29,4.59,8,8,0,0,0,4.62-1.51,11,11,0,0,0,3-5.9c2.67-9.71,5.28-20.35,1.22-29.59a11.83,11.83,0,0,0-6.08-6.56,13,13,0,0,0-8.89.6c-4.89,1.75-12.12,5.3-14.84,10S286.64,104.49,288.33,109.06Z"/><path id="Tracé_2007" data-name="Tracé 2007" class="cls-2" d="M301.68,65.14a23.14,23.14,0,0,0-22.6,5.18c-3.84,3.69-6.3,8.62-10.24,12.19-3.71,3.37-8.46,5.28-12.76,7.85-.53.3-1.1.73-1.13,1.33-.06.93,1.08,1.38,1.59,2.15.79,1.18-.05,2.75-.88,3.93l-4.73,6.64a4,4,0,0,0-1,2.41c.1,2.32,3.43,2.57,5.71,2.09l7.5-1.6a43.31,43.31,0,0,0-10,12.62c1.9,1.57,4.9.35,6.8-1.26s3.61-3.85,6.08-4c-2.95,6.37,8.53,4.72,12,4.22a21.63,21.63,0,0,0,8.1-3.31,10,10,0,0,0,3.09-2.58,4.11,4.11,0,0,0,.73-3.82,12.69,12.69,0,0,0-.93-1.59,7.91,7.91,0,0,1-.73-6.72c.13-.34.31-.72.67-.81a1.23,1.23,0,0,1,.86.18l2.74,1.37a13,13,0,0,1,10.63-14.93c5.2-.93,15.09.48,12.79-7.9C314.11,72.47,307.72,67,301.68,65.14Z"/><path id="Tracé_2008" data-name="Tracé 2008" class="cls-15" d="M312.68,85.4a5.67,5.67,0,0,0-1.38-10.28,14.6,14.6,0,0,0-8.09-.71,30.39,30.39,0,0,0-13,4.4c-5.35,3.55-8.83,9.31-13.65,13.6a47.85,47.85,0,0,1-13.77,7.83,15.61,15.61,0,0,0-6.2,3.56c-.27.32-.52.74-.34,1.11a1.2,1.2,0,0,0,.45.39,5.47,5.47,0,0,0,4.56.21,26.68,26.68,0,0,0,2.36-1.32,16.28,16.28,0,0,1,7.67-.94,24.93,24.93,0,0,0,10.61-1.59,47,47,0,0,0,7.88-5.22,7.07,7.07,0,0,1,3.26-1.12,13.78,13.78,0,0,0-.55,6.18l-2.74-1.37a1.26,1.26,0,0,0-.95-.12c-.35,0-.54.48-.66.82a8,8,0,0,0,.72,6.72,9,9,0,0,1,.91,1.59,4,4,0,0,1-.69,3.81,11,11,0,0,1-3.08,2.6,22,22,0,0,1-8.11,3.29c-3.36.41-14.88,2.15-12-4.22-2.45.3-4.29,2.52-6.08,4s-4.76,2.8-6.79,1.26a43,43,0,0,1,10-12.62l-7.5,1.6c-2.29.48-5.61.23-5.71-2.09a4.06,4.06,0,0,1,1-2.41l4.75-6.64c.83-1.18,1.68-2.75.88-3.93-.52-.77-1.65-1.24-1.59-2.15,0-.62.61-1,1.13-1.35,4.28-2.55,9-4.51,12.76-7.81,4-3.57,6.41-8.54,10.24-12.19a23.06,23.06,0,0,1,22.61-5.19c6,2,12.42,7.32,14.15,13.58C316.92,82.77,315.29,84.54,312.68,85.4Z"/><path id="Tracé_2009" data-name="Tracé 2009" class="cls-16" d="M413.77,124.86c4.61-1.68,10.28-1.27,13.76,2.22a2.84,2.84,0,0,1,.86,1.46,1,1,0,0,1-.71,1.19l-.05,0-3.51.43a36.86,36.86,0,0,0-5.94,6,22.92,22.92,0,0,1-9.4,5.91c-4.75,1.55-11.2-1-8.07-6.76C403.16,130.79,409,126.58,413.77,124.86Z"/><path id="Tracé_2010" data-name="Tracé 2010" class="cls-17" d="M410.66,169.12a5.59,5.59,0,0,1,3.52,3.57,1.6,1.6,0,0,1-.05.84c-.36.83-1.51.78-2.42.74-5.91-.33-10.86,4.86-16.76,5.46a10.54,10.54,0,0,1-7.53-2.22c-1.9-1.59-4-4.78-3.36-7.41.64-3,4-3.47,6.59-3.87A33.9,33.9,0,0,1,410.66,169.12Z"/><path id="Tracé_2011" data-name="Tracé 2011" class="cls-5" d="M441.23,101.53l20.69-20.06s5.38-2.57,7.54-.45S478.3,155,478.3,155l-26.61,16.76Z"/><path id="Tracé_2012" data-name="Tracé 2012" class="cls-18" d="M441.59,101.69l20.75-20.07s5.37-2.57,7.53-.45,8.5,73.88,8.5,73.88L452.1,171.9Z"/><path id="Tracé_2013" data-name="Tracé 2013" class="cls-19" d="M448.31,100.52l21.57-19.33s-4.59-2.52-7.54.45-20.75,20-20.75,20Z"/><path id="Tracé_2014" data-name="Tracé 2014" class="cls-20" d="M471.58,355.91a4.08,4.08,0,0,0,.94,1.13,3.73,3.73,0,0,0,1.55.54,9.9,9.9,0,0,0,8-2.35,5.75,5.75,0,0,0,1.88-2.87,8.25,8.25,0,0,0-.94-5l-2-4.66a.34.34,0,0,0-.11-.17l-.39,0c-3.74,2.92-8.8,1.09-12.46,3.24C465,347.79,470.09,353.6,471.58,355.91Z"/><path id="Tracé_2015" data-name="Tracé 2015" class="cls-2" d="M476.23,355a27.65,27.65,0,0,0-4,1.05,4,4,0,0,0-2.53,3,5.58,5.58,0,0,0,1.4,3.49c1.2,1.67,2.39,3.35,3.64,5a6.85,6.85,0,0,0,2.92,2.54,6,6,0,0,0,3.59-.17,44.26,44.26,0,0,0,9.91-4.62q9.54-5.49,18.86-11.53c1-.67,2.15-1.51,2.22-2.73a2.62,2.62,0,0,0-1.1-2.16,6.76,6.76,0,0,0-2.3-1,51.19,51.19,0,0,0-15.1-1.44c-1.8,0-4.89-.43-6.45.57s-2.91,3.19-4.56,4.48a17.57,17.57,0,0,1-6.52,3.54Z"/><path id="Tracé_2016" data-name="Tracé 2016" class="cls-5" d="M385.77,179.74a24.91,24.91,0,0,1-9.15,4.52l-17.75,5.91A45.1,45.1,0,0,1,346.81,193a41.8,41.8,0,0,1-11.24-1.36c-14.74-3.3-37.86-6.47-50.05-16.11-9.23-7.38-9.25-24.23.84-29.69a14.6,14.6,0,0,1,6.22-1.72c9.06-.53,16.19,7,23.81,12,16.38,10.82,37.36,10.48,57,9.53l1.71-.21c5.08-.25,11.45.3,13.41,4.94C389.81,173.65,388.33,177.43,385.77,179.74Z"/><path id="Tracé_2017" data-name="Tracé 2017" class="cls-5" d="M405.73,205.26l46.37-33.35-3.78-71.32s-7.93-2.19-7.68,5,1.59,61.71,1.59,61.71l-40.16,28S396.48,202.58,405.73,205.26Z"/><path id="Tracé_2018" data-name="Tracé 2018" class="cls-5" d="M246.81,484.7a103.88,103.88,0,0,1-49.55,48.65l6.3-19.4c-9.11,14.61-18.29,29.29-29.6,42.27s-25,24.29-41,30.58c-2-2.23-.58-5.7.91-8.28a350.82,350.82,0,0,1,33.69-48.6c-30.42,23.1-61,46.27-94.5,64.56a401.4,401.4,0,0,1,70.33-92.91l-20.92,8.22a320.1,320.1,0,0,1,81.43-83.66C220.33,443.68,234.26,464.29,246.81,484.7Z"/><path id="Tracé_2019" data-name="Tracé 2019" class="cls-21" d="M246.81,484.7a103.88,103.88,0,0,1-49.55,48.65l6.3-19.4c-9.11,14.61-18.29,29.29-29.6,42.27s-25,24.29-41,30.58c-2-2.23-.58-5.7.91-8.28a350.82,350.82,0,0,1,33.69-48.6c-30.42,23.1-61,46.27-94.5,64.56a401.4,401.4,0,0,1,70.33-92.91l-20.92,8.22a320.1,320.1,0,0,1,81.43-83.66C220.33,443.68,234.26,464.29,246.81,484.7Z"/><path id="Tracé_2020" data-name="Tracé 2020" class="cls-5" d="M176.5,475c-.65,1.19-1.26,2.75-.43,3.82a3.67,3.67,0,0,0,2.25,1L185,481.2a192.69,192.69,0,0,0-20,26.8c-1,1.58-1.83,3.92-.35,5a3.49,3.49,0,0,0,2.33.51c9.07-.29,16.84-6.29,23.9-12a38.73,38.73,0,0,1-5.38,14.73c8.45-2.74,15.74-8.18,22.09-14.26s12.21-12.86,18.81-18.79l-1.62,6.5a41.07,41.07,0,0,0,9.85-12.38,5.07,5.07,0,0,0,0-6,97,97,0,0,0-18.56-25.08,14.15,14.15,0,0,0-4.67-3.36c-5.61-2.12-15.49,8.24-19.33,11.86A81.64,81.64,0,0,0,176.5,475Z"/><path id="Tracé_2021" data-name="Tracé 2021" class="cls-22" d="M176.5,475c-.65,1.19-1.26,2.75-.43,3.82a3.67,3.67,0,0,0,2.25,1L185,481.2a192.69,192.69,0,0,0-20,26.8c-1,1.58-1.83,3.92-.35,5a3.49,3.49,0,0,0,2.33.51c9.07-.29,16.84-6.29,23.9-12a38.73,38.73,0,0,1-5.38,14.73c8.45-2.74,15.74-8.18,22.09-14.26s12.21-12.86,18.81-18.79l-1.62,6.5a41.07,41.07,0,0,0,9.85-12.38,5.07,5.07,0,0,0,0-6,97,97,0,0,0-18.56-25.08,14.15,14.15,0,0,0-4.67-3.36c-5.61-2.12-15.49,8.24-19.33,11.86A81.64,81.64,0,0,0,176.5,475Z"/><path id="Tracé_2022" data-name="Tracé 2022" class="cls-23" d="M381.66,171.11a6.92,6.92,0,0,1-3.11.84c-11.21,1.38-22.52,2.6-33.81,2s-22.68-3.19-32.27-9.15c-6.77-4.27-12.4-9.9-19.18-14-1.84-1.18-6.42-2.39-6.94-4.9a14.56,14.56,0,0,1,6.22-1.72c9.06-.53,16.18,7,23.81,12,16.38,10.83,37.36,10.48,57,9.53l.4-.05a17.79,17.79,0,0,1,7.29,1.27,2.94,2.94,0,0,1,1.66,1.42,2.42,2.42,0,0,1-1.08,2.85Z"/><path id="Tracé_2023" data-name="Tracé 2023" class="cls-24" d="M670.51,100.57l-.66,11.69a275,275,0,0,1-17.19,62.58c-18.11,45.7-54,107-125.14,168.61-111.74,96.92-216.95,123.7-256.13,130.62l-15.71-17C553,328.14,607.93,173.45,616.27,171.21s26.26-67.32,26.26-67.32Z"/><path id="Tracé_2024" data-name="Tracé 2024" class="cls-25" d="M315.2,81.67a6.27,6.27,0,0,1-2.52,3.72,18.27,18.27,0,0,1-3.15,2.08L297,94.39a11.18,11.18,0,0,1-4.08,1.08,7.06,7.06,0,0,0-3.27,1.12,47,47,0,0,1-7.88,5.22,24.94,24.94,0,0,1-10.61,1.6,16.15,16.15,0,0,0-7.67.94c-.8.4-1.58,1-2.36,1.31a5.43,5.43,0,0,1-4.56-.21,1.27,1.27,0,0,1-.45-.38c-.18-.37.07-.8.34-1.12a15.59,15.59,0,0,1,6.2-3.55,47.88,47.88,0,0,0,13.77-7.84c4.86-4.22,8.34-10,13.65-13.6a30.52,30.52,0,0,1,13-4.4,14.7,14.7,0,0,1,8.09.71A6.27,6.27,0,0,1,315.2,81.67Z"/></g></g></g></svg>