<svg xmlns="http://www.w3.org/2000/svg" viewBox="0 0 477.24 91.21"><defs><style>.cls-1{fill:#0d0d0d;}.cls-1,.cls-2{opacity:0.92;}.cls-2{fill:#161515;}.cls-3{fill:#111110;}.cls-4{fill:#1d1d1b;}</style></defs><g id="Calque_2" data-name="Calque 2"><g id="Calque_1-2" data-name="Calque 1"><g id="Logo_final" data-name="Logo final"><path class="cls-1" d="M22.62,57.13l-15.33,10s-9.24,6-4.67,16.67c0,0,3.11,7.21,11.31,7.4a14.06,14.06,0,0,0,7.87-2.31L41.05,76.62s12.8-11.68-.81-17.49S22.62,57.13,22.62,57.13Z"/><path class="cls-1" d="M15.89,13.69,27.76,6.48S22.23.19,26.61,0L52.33,2.67s3.91-.1,3.14,5.14L47.76,31.23s-1.43,4.1-4.09,0l-1.91-2.95-14,9S7.77,35.9,10,23A14.93,14.93,0,0,1,15.89,13.69Z"/><path class="cls-2" d="M18.07,12.86s-1,4.42,5.12,9.15a22.16,22.16,0,0,0,6,3.22L40.22,29.3l-12.9,8S9.47,30.73,11,23.57A18,18,0,0,1,18.07,12.86Z"/><path class="cls-3" d="M53,59.59C51.32,72.1,37,79.1,36.59,79.32a9.28,9.28,0,0,0,3.12-6.67c.49-7.3-4.23-9-8.83-11.06-.54-.23-1.11-.41-1.65-.65L10.29,52.8C-2.47,46.66.24,32.09.24,32.09c1.22-11.25,16.38-18.81,16.85-19a11,11,0,0,0-4.24,7.46,9.77,9.77,0,0,0,4.63,9c5.77,3.69,16.33,7.1,16.33,7.1,11,4,14.06,8.23,14.06,8.23C54.77,52.46,53,59.59,53,59.59Z"/><path class="cls-4" d="M69,71.32A12.41,12.41,0,0,1,61.93,60h5.82a9,9,0,0,0,2.43,5.55,8.15,8.15,0,0,0,6.21,2.25,8.44,8.44,0,0,0,6.15-2.19A7.46,7.46,0,0,0,84.79,60a6.87,6.87,0,0,0-1.32-4.37,8.55,8.55,0,0,0-3.3-2.55,47.78,47.78,0,0,0-5.34-1.88,43.57,43.57,0,0,1-6.63-2.42A11,11,0,0,1,63.94,45,12.11,12.11,0,0,1,62.17,38a13.15,13.15,0,0,1,1.74-6.79,11.8,11.8,0,0,1,4.89-4.57A15.71,15.71,0,0,1,76,25.06a14.08,14.08,0,0,1,9.63,3.29,12.63,12.63,0,0,1,4.23,8.74h-6a7.48,7.48,0,0,0-2.52-4.74,8.31,8.31,0,0,0-5.88-2.05,7.94,7.94,0,0,0-5.58,2,7.17,7.17,0,0,0-2.16,5.55A6.44,6.44,0,0,0,69,42a8.34,8.34,0,0,0,3.18,2.46,51.11,51.11,0,0,0,5.31,1.91,46,46,0,0,1,6.66,2.52,11.46,11.46,0,0,1,4.32,3.83,12.13,12.13,0,0,1,1.8,7,13.42,13.42,0,0,1-1.62,6.45,12.5,12.5,0,0,1-4.8,4.91A14.5,14.5,0,0,1,76.39,73,16.22,16.22,0,0,1,69,71.32Z"/><path class="cls-4" d="M105,40.72v21.7a5.6,5.6,0,0,0,1,3.8,4.66,4.66,0,0,0,3.54,1.11h4V72.5h-4.92q-4.56,0-6.84-2.35c-1.52-1.57-2.28-4.14-2.28-7.73V40.72H95.29v-5h4.26V26.4H105v9.28h8.58v5Z"/><path class="cls-4" d="M120.19,44a16,16,0,0,1,5.61-6.62,14.2,14.2,0,0,1,8-2.35,13.37,13.37,0,0,1,7.5,2.09A13.13,13.13,0,0,1,146,42.4V35.68h5.52V72.5H146V65.65A13.71,13.71,0,0,1,141.16,71a13.27,13.27,0,0,1-7.47,2.12,13.74,13.74,0,0,1-7.92-2.42,16.46,16.46,0,0,1-5.58-6.79,23.25,23.25,0,0,1-2-9.95A22.75,22.75,0,0,1,120.19,44Zm24.3,2.72A11.39,11.39,0,0,0,140.44,42a10.42,10.42,0,0,0-11.19,0,11.28,11.28,0,0,0-4,4.71,16.44,16.44,0,0,0-1.5,7.25,16.81,16.81,0,0,0,1.5,7.36,11.34,11.34,0,0,0,4,4.77,10,10,0,0,0,5.58,1.65,10.12,10.12,0,0,0,5.61-1.65,11.26,11.26,0,0,0,4.05-4.77A16.65,16.65,0,0,0,146,54,16.48,16.48,0,0,0,144.49,46.76Z"/><path class="cls-4" d="M181.78,37.16a13.07,13.07,0,0,1,4.77,5.24V35.68h5.52V73.31a20.18,20.18,0,0,1-1.92,9,14.63,14.63,0,0,1-5.49,6.15,15.49,15.49,0,0,1-8.31,2.21,16.86,16.86,0,0,1-10.8-3.42,13.72,13.72,0,0,1-5.1-9.34h5.4a9.57,9.57,0,0,0,3.72,5.41,11.26,11.26,0,0,0,6.78,2,9.47,9.47,0,0,0,7.35-3.16q2.85-3.17,2.85-8.87V65.58a14.11,14.11,0,0,1-4.8,5.38,13,13,0,0,1-7.44,2.15,13.88,13.88,0,0,1-7.95-2.42,16.37,16.37,0,0,1-5.61-6.79,23.25,23.25,0,0,1-2-9.95,22.75,22.75,0,0,1,2-9.91,16,16,0,0,1,5.61-6.62,14.2,14.2,0,0,1,7.95-2.35A13.41,13.41,0,0,1,181.78,37.16Zm3.27,9.6A11.39,11.39,0,0,0,181,42a10.42,10.42,0,0,0-11.19,0,11.28,11.28,0,0,0-4,4.71,16.44,16.44,0,0,0-1.5,7.25,16.81,16.81,0,0,0,1.5,7.36,11.34,11.34,0,0,0,4,4.77,10,10,0,0,0,5.58,1.65A10.12,10.12,0,0,0,181,66.08a11.26,11.26,0,0,0,4.05-4.77,16.65,16.65,0,0,0,1.5-7.29A16.48,16.48,0,0,0,185.05,46.76Z"/><path class="cls-4" d="M231.13,56.37H204.85c.2,3.63,1.31,6.47,3.33,8.5a10,10,0,0,0,7.35,3.06,9.27,9.27,0,0,0,5.91-1.85,9.7,9.7,0,0,0,3.33-4.94h5.88a16,16,0,0,1-5.28,8.64,14.77,14.77,0,0,1-9.84,3.33,15.23,15.23,0,0,1-8.37-2.36,15.88,15.88,0,0,1-5.79-6.68,22.79,22.79,0,0,1-2.1-10,23.12,23.12,0,0,1,2-10A15.38,15.38,0,0,1,207,37.39a15.67,15.67,0,0,1,8.49-2.32,14.91,14.91,0,0,1,13.83,8.57,20.37,20.37,0,0,1,1.95,9Q231.31,54.42,231.13,56.37Zm-6.84-11a9.42,9.42,0,0,0-3.75-3.83,10.6,10.6,0,0,0-5.25-1.31,9.52,9.52,0,0,0-7,3,12.72,12.72,0,0,0-3.33,8.2h20.76A12.33,12.33,0,0,0,224.29,45.39Z"/><path class="cls-4" d="M263.62,50.46a12.06,12.06,0,0,1,3,4.17,13.38,13.38,0,0,1-.51,11.72,11.37,11.37,0,0,1-4.71,4.5,15.26,15.26,0,0,1-7.29,1.65h-15.6V25.67h15a15.48,15.48,0,0,1,7.26,1.57,10.75,10.75,0,0,1,4.5,4.27,12.31,12.31,0,0,1,1.5,6.05,10.8,10.8,0,0,1-7.32,10.82A8.42,8.42,0,0,1,263.62,50.46ZM244,45.89h9.18a8.25,8.25,0,0,0,5.94-2,7.39,7.39,0,0,0,2.1-5.58,7.36,7.36,0,0,0-2.1-5.58,8.43,8.43,0,0,0-6.06-2H244Zm16,19.42a7.82,7.82,0,0,0,2.28-6,8.06,8.06,0,0,0-2.4-6.15,9,9,0,0,0-6.42-2.25H244V67.46h9.66A8.89,8.89,0,0,0,260,65.31Z"/><path class="cls-4" d="M303.61,35.68,283.8,89.84h-5.63l6.48-17.74L271.38,35.68h6.07l10.31,29.83L298,35.68Z"/><path class="cls-4" d="M314.91,71.32A12.41,12.41,0,0,1,307.86,60h5.82a9,9,0,0,0,2.43,5.55,8.15,8.15,0,0,0,6.21,2.25,8.44,8.44,0,0,0,6.15-2.19A7.46,7.46,0,0,0,330.72,60a6.87,6.87,0,0,0-1.32-4.37,8.55,8.55,0,0,0-3.3-2.55,47.78,47.78,0,0,0-5.34-1.88,43.57,43.57,0,0,1-6.63-2.42,11,11,0,0,1-4.26-3.8A12.11,12.11,0,0,1,308.1,38a13.15,13.15,0,0,1,1.74-6.79,11.8,11.8,0,0,1,4.89-4.57A15.71,15.71,0,0,1,322,25.06a14.08,14.08,0,0,1,9.63,3.29,12.63,12.63,0,0,1,4.23,8.74h-6a7.48,7.48,0,0,0-2.52-4.74,8.31,8.31,0,0,0-5.88-2.05,7.94,7.94,0,0,0-5.58,2,7.17,7.17,0,0,0-2.16,5.55A6.44,6.44,0,0,0,315,42a8.34,8.34,0,0,0,3.18,2.46,51.11,51.11,0,0,0,5.31,1.91,46,46,0,0,1,6.66,2.52,11.46,11.46,0,0,1,4.32,3.83,12.13,12.13,0,0,1,1.8,7,13.42,13.42,0,0,1-1.62,6.45,12.5,12.5,0,0,1-4.8,4.91,14.5,14.5,0,0,1-7.5,1.88A16.22,16.22,0,0,1,314.91,71.32Z"/><path class="cls-4" d="M350.94,40.72v21.7a5.6,5.6,0,0,0,1,3.8,4.66,4.66,0,0,0,3.54,1.11h4V72.5H354.6q-4.56,0-6.84-2.35c-1.52-1.57-2.28-4.14-2.28-7.73V40.72h-4.26v-5h4.26V26.4h5.46v9.28h8.58v5Z"/><path class="cls-4" d="M366.12,44a16,16,0,0,1,5.61-6.62,14.2,14.2,0,0,1,7.95-2.35,13.37,13.37,0,0,1,7.5,2.09,13.13,13.13,0,0,1,4.74,5.24V35.68h5.52V72.5h-5.52V65.65A13.71,13.71,0,0,1,387.09,71a13.27,13.27,0,0,1-7.47,2.12,13.74,13.74,0,0,1-7.92-2.42,16.46,16.46,0,0,1-5.58-6.79,23.25,23.25,0,0,1-2-9.95A22.75,22.75,0,0,1,366.12,44Zm24.3,2.72A11.39,11.39,0,0,0,386.37,42a10.42,10.42,0,0,0-11.19,0,11.28,11.28,0,0,0-4,4.71,16.44,16.44,0,0,0-1.5,7.25,16.81,16.81,0,0,0,1.5,7.36,11.34,11.34,0,0,0,4,4.77,10,10,0,0,0,5.58,1.65,10.12,10.12,0,0,0,5.61-1.65,11.26,11.26,0,0,0,4.05-4.77,16.65,16.65,0,0,0,1.5-7.29A16.48,16.48,0,0,0,390.42,46.76Z"/><path class="cls-4" d="M427.71,37.16a13.07,13.07,0,0,1,4.77,5.24V35.68H438V73.31a20.18,20.18,0,0,1-1.92,9,14.63,14.63,0,0,1-5.49,6.15,15.49,15.49,0,0,1-8.31,2.21,16.86,16.86,0,0,1-10.8-3.42,13.72,13.72,0,0,1-5.1-9.34h5.4a9.57,9.57,0,0,0,3.72,5.41,11.26,11.26,0,0,0,6.78,2,9.47,9.47,0,0,0,7.35-3.16q2.85-3.17,2.85-8.87V65.58a14.11,14.11,0,0,1-4.8,5.38,13,13,0,0,1-7.44,2.15,13.88,13.88,0,0,1-7.95-2.42,16.37,16.37,0,0,1-5.61-6.79,23.25,23.25,0,0,1-2-9.95,22.75,22.75,0,0,1,2-9.91,16,16,0,0,1,5.61-6.62,14.2,14.2,0,0,1,7.95-2.35A13.41,13.41,0,0,1,427.71,37.16Zm3.27,9.6A11.39,11.39,0,0,0,426.93,42a10.42,10.42,0,0,0-11.19,0,11.28,11.28,0,0,0-4,4.71,16.44,16.44,0,0,0-1.5,7.25,16.81,16.81,0,0,0,1.5,7.36,11.34,11.34,0,0,0,4,4.77,10,10,0,0,0,5.58,1.65,10.12,10.12,0,0,0,5.61-1.65A11.26,11.26,0,0,0,431,61.31a16.65,16.65,0,0,0,1.5-7.29A16.48,16.48,0,0,0,431,46.76Z"/><path class="cls-4" d="M477.06,56.37H450.78c.2,3.63,1.31,6.47,3.33,8.5a10,10,0,0,0,7.35,3.06,9.27,9.27,0,0,0,5.91-1.85,9.7,9.7,0,0,0,3.33-4.94h5.88a16,16,0,0,1-5.28,8.64,14.77,14.77,0,0,1-9.84,3.33,15.23,15.23,0,0,1-8.37-2.36,15.88,15.88,0,0,1-5.79-6.68,22.79,22.79,0,0,1-2.1-10,23.12,23.12,0,0,1,2-10A15.38,15.38,0,0,1,453,37.39a15.67,15.67,0,0,1,8.49-2.32,14.91,14.91,0,0,1,13.83,8.57,20.37,20.37,0,0,1,1.95,9Q477.24,54.42,477.06,56.37Zm-6.84-11a9.42,9.42,0,0,0-3.75-3.83,10.6,10.6,0,0,0-5.25-1.31,9.52,9.52,0,0,0-7.05,3,12.72,12.72,0,0,0-3.33,8.2H471.6A12.33,12.33,0,0,0,470.22,45.39Z"/></g></g></g></svg>