<svg xmlns="http://www.w3.org/2000/svg" viewBox="0 0 207.06 45.37"><defs><style>.cls-1{fill:#1d1d1b;}.cls-2{fill:#0d0d0d;}.cls-2,.cls-3{opacity:0.92;}.cls-3{fill:#161515;}.cls-4{fill:#111110;}</style></defs><g id="Calque_2" data-name="Calque 2"><g id="Calque_1-2" data-name="Calque 1"><g id="Logo_final" data-name="Logo final"><path class="cls-1" d="M36.72,23.34c-3-1-6.17-2.1-6.17-8.13,0-4.83,2.44-8.42,6.08-8.42,3,0,5.08,2.61,6.25,6.28l-1.94,1.5c-.92-3-2.49-4.75-4.31-4.75s-3.89,1.84-3.89,5.39S35,19.75,37.4,20.56c3,1,6.16,2.1,6.16,8.13,0,5.26-3.36,8.42-6.93,8.42-3.27,0-5.4-2.6-6.57-6.28L32,29.33c.93,3,2.5,4.75,4.63,4.75,1.94,0,4.74-1.46,4.74-5.39C41.37,25,39.09,24.15,36.72,23.34Z"/><path class="cls-1" d="M45.1,14.53h4.16V7.21h2.16v7.32h4.16v3H51.42V36.69H49.26V17.52H45.1Z"/><path class="cls-1" d="M70.32,36.69H68.16V34.38a5.41,5.41,0,0,1-4.59,2.73c-4.41,0-6.75-5.39-6.75-11.5S59.16,14.1,63.57,14.1a5.38,5.38,0,0,1,4.59,2.74V14.53h2.16Zm-6.75-2.57c2.53,0,4.59-3.81,4.59-8.51S66.1,17.1,63.57,17.1,59,20.9,59,25.61,61,34.12,63.57,34.12Z"/><path class="cls-1" d="M86.29,33.86c0,6.12-2.35,11.51-6.76,11.51-2.86,0-4.84-2.27-5.88-5.56l1.94-1.54c1,3.08,2.74,4.11,3.94,4.11,2.16,0,4.44-2.74,4.6-8a5.38,5.38,0,0,1-4.6,2.73c-4.4,0-6.75-5.39-6.75-11.5S75.13,14.1,79.53,14.1a5.51,5.51,0,0,1,4.6,2.74V14.53h2.16Zm-6.76.26c2.53,0,4.6-3.81,4.6-8.51s-2.07-8.51-4.6-8.51-4.59,3.8-4.59,8.51S77,34.12,79.53,34.12Z"/><path class="cls-1" d="M95.5,14.1c4.41,0,6.75,5.39,6.75,11.51H90.91c0,5.17,2.34,8.51,4.59,8.51,1.2,0,3-1,4-4.11l1.94,1.54c-1,3.3-3,5.56-5.89,5.56-4.41,0-6.75-5.39-6.75-11.5S91.09,14.1,95.5,14.1Zm-4.31,8.51h8.6c-.65-3.2-2.35-5.51-4.29-5.51S91.83,19.41,91.19,22.61Z"/><path class="cls-1" d="M104.72,7.21h4.1c4.78,0,8,2.36,8,7.88,0,2.78-.83,4.74-2.25,6,2.13,1.32,3.42,3.8,3.42,7.23,0,5.43-3.23,8.34-8,8.34h-5.27Zm2.19,3v9.63h1.91c4.19,0,5.85-1.84,5.85-4.79s-1.66-4.84-5.85-4.84Zm1.91,12.66h-1.91V33.65H110c4.19,0,5.86-2.35,5.86-5.3C115.85,23.38,111.93,22.91,108.82,22.91Z"/><path class="cls-1" d="M125.28,44.94H123l2.15-8.17-5.88-22.24h2.28l4.74,18,4.75-18h2.31Z"/><path class="cls-1" d="M141.52,23.34c-3-1-6.16-2.1-6.16-8.13,0-4.83,2.43-8.42,6.07-8.42,3,0,5.09,2.61,6.26,6.28l-1.94,1.5c-.93-3-2.5-4.75-4.32-4.75s-3.88,1.84-3.88,5.39,2.28,4.54,4.65,5.35c3,1,6.17,2.1,6.17,8.13,0,5.26-3.36,8.42-6.94,8.42-3.27,0-5.39-2.6-6.57-6.28l1.95-1.5c.92,3,2.49,4.75,4.62,4.75,1.94,0,4.75-1.46,4.75-5.39C146.18,25,143.9,24.15,141.52,23.34Z"/><path class="cls-1" d="M149.91,14.53h4.16V7.21h2.16v7.32h4.16v3h-4.16V36.69h-2.16V17.52h-4.16Z"/><path class="cls-1" d="M175.12,36.69H173V34.38a5.41,5.41,0,0,1-4.59,2.73c-4.41,0-6.75-5.39-6.75-11.5S164,14.1,168.37,14.1A5.38,5.38,0,0,1,173,16.84V14.53h2.16Zm-6.75-2.57c2.53,0,4.59-3.81,4.59-8.51s-2.06-8.51-4.59-8.51-4.59,3.8-4.59,8.51S165.84,34.12,168.37,34.12Z"/><path class="cls-1" d="M191.09,33.86c0,6.12-2.34,11.51-6.75,11.51-2.87,0-4.84-2.27-5.89-5.56l1.94-1.54c1,3.08,2.75,4.11,4,4.11,2.16,0,4.44-2.74,4.59-8a5.37,5.37,0,0,1-4.59,2.73c-4.41,0-6.75-5.39-6.75-11.5s2.34-11.51,6.75-11.51a5.51,5.51,0,0,1,4.59,2.74V14.53h2.16Zm-6.75.26c2.53,0,4.59-3.81,4.59-8.51s-2.06-8.51-4.59-8.51-4.59,3.8-4.59,8.51S181.81,34.12,184.34,34.12Z"/><path class="cls-1" d="M200.31,14.1c4.4,0,6.75,5.39,6.75,11.51H195.71c0,5.17,2.35,8.51,4.6,8.51,1.2,0,3-1,3.94-4.11l1.94,1.54c-1,3.3-3,5.56-5.88,5.56-4.41,0-6.76-5.39-6.76-11.5S195.9,14.1,200.31,14.1ZM196,22.61h8.6c-.65-3.2-2.34-5.51-4.28-5.51S196.64,19.41,196,22.61Z"/><path class="cls-2" d="M11.22,28.33l-7.61,5A6.64,6.64,0,0,0,1.3,41.55a6.47,6.47,0,0,0,5.61,3.68,7.06,7.06,0,0,0,3.9-1.15L20.36,38s6.35-5.79-.41-8.67S11.22,28.33,11.22,28.33Z"/><path class="cls-2" d="M7.88,6.79l5.89-3.58S11,.09,13.2,0L26,1.32s1.94-.05,1.56,2.55L23.68,15.49s-.71,2-2,0L20.71,14l-6.94,4.49s-9.92-.71-8.83-7.13A7.42,7.42,0,0,1,7.88,6.79Z"/><path class="cls-3" d="M9,6.38s-.48,2.19,2.54,4.54a11.27,11.27,0,0,0,3,1.59l5.49,2-6.4,4s-8.85-3.24-8.1-6.79A8.92,8.92,0,0,1,9,6.38Z"/><path class="cls-4" d="M26.3,29.55c-.85,6.2-7.94,9.67-8.16,9.78A4.61,4.61,0,0,0,19.69,36c.25-3.62-2.1-4.48-4.38-5.49-.26-.12-.55-.2-.82-.32l-9.39-4c-6.32-3-5-10.27-5-10.27.61-5.58,8.12-9.32,8.35-9.44a5.45,5.45,0,0,0-2.1,3.7,4.86,4.86,0,0,0,2.3,4.47,44.93,44.93,0,0,0,8.1,3.51c5.47,2,7,4.08,7,4.08C27.16,26,26.3,29.55,26.3,29.55Z"/></g></g></g></svg>